<?xml version="1.0" standalone="no"?>
<!DOCTYPE svg PUBLIC "-//W3C//DTD SVG 20010904//EN"
 "http://www.w3.org/TR/2001/REC-SVG-20010904/DTD/svg10.dtd">
<svg version="1.0" xmlns="http://www.w3.org/2000/svg"
 width="80.000000pt" height="80.000000pt" viewBox="0 0 80.000000 80.000000"
 preserveAspectRatio="xMidYMid meet">
<metadata>
Created by potrace 1.14, written by Peter Selinger 2001-2017
</metadata>
<g transform="translate(0.000000,80.000000) scale(0.100000,-0.100000)"
fill="#000000" stroke="none">
<path d="M480 730 c0 -6 -27 -10 -60 -10 -33 0 -60 -4 -60 -10 0 -6 -27 -10
-60 -10 -33 0 -60 -4 -60 -10 0 -5 -18 -10 -40 -10 -22 0 -40 -4 -40 -10 0 -5
-7 -10 -16 -10 -20 0 -44 -24 -44 -44 0 -9 -4 -16 -10 -16 -5 0 -10 -22 -10
-50 0 -27 5 -50 10 -50 6 0 10 -27 10 -60 0 -33 4 -60 10 -60 6 0 10 -27 10
-60 0 -33 4 -60 10 -60 6 0 10 -18 10 -40 0 -22 5 -40 10 -40 6 0 10 -7 10
-16 0 -20 24 -44 44 -44 9 0 16 -4 16 -10 0 -5 18 -10 40 -10 22 0 40 5 40 10
0 6 27 10 60 10 33 0 60 4 60 10 0 6 27 10 60 10 33 0 60 4 60 10 0 6 23 10
50 10 28 0 50 5 50 10 0 6 9 10 20 10 13 0 20 7 20 18 0 10 9 24 20 32 14 10
20 26 20 52 0 21 -4 38 -10 38 -6 0 -10 27 -10 60 0 48 -3 60 -16 60 -30 0
-44 -27 -44 -83 0 -35 5 -58 13 -61 10 -5 10 -7 0 -12 -7 -3 -13 -12 -13 -21
0 -27 -28 -43 -74 -43 -25 0 -46 -4 -46 -10 0 -6 -27 -10 -60 -10 -33 0 -60
-4 -60 -10 0 -6 -26 -10 -59 -10 -38 0 -61 -5 -65 -12 -5 -11 -7 -11 -12 0 -3
6 -12 12 -21 12 -27 0 -43 28 -43 74 0 25 -4 46 -10 46 -6 0 -10 27 -10 60 0
33 -4 60 -10 60 -6 0 -10 27 -10 60 0 33 -4 60 -10 60 -18 0 -10 31 15 55 18
19 35 25 70 25 25 0 45 5 45 10 0 6 27 10 60 10 33 0 60 4 60 10 0 6 27 10 60
10 33 0 60 4 60 10 0 6 7 10 16 10 20 0 44 24 44 44 0 12 -11 16 -50 16 -27 0
-50 -4 -50 -10z"/>
<path d="M633 705 c-18 -19 -33 -40 -33 -46 0 -6 -13 -24 -30 -39 -16 -15 -30
-34 -30 -42 0 -7 -9 -20 -20 -28 -11 -8 -20 -21 -20 -28 0 -8 -13 -27 -30 -42
-16 -15 -30 -35 -30 -44 0 -25 -30 -19 -60 14 -15 17 -34 30 -40 30 -7 0 -21
9 -31 21 l-18 21 -47 -48 c-28 -27 -43 -49 -36 -52 7 -2 12 -12 12 -23 0 -12
7 -19 18 -19 10 0 24 -9 32 -20 8 -11 21 -20 28 -20 8 0 27 -13 42 -30 15 -16
34 -30 42 -30 7 0 20 -9 28 -20 18 -25 70 -28 70 -4 0 9 14 29 30 44 17 15 30
34 30 42 0 7 9 20 20 28 11 8 20 21 20 28 0 8 14 27 30 42 17 15 30 34 30 42
0 7 9 20 20 28 11 8 20 21 20 28 0 8 14 27 30 42 17 15 30 35 30 44 0 9 5 16
10 16 18 0 10 31 -15 55 -13 14 -31 25 -40 25 -8 0 -15 5 -15 10 0 17 -14 10
-47 -25z"/>
</g>
</svg>
